# xmcd
#
# Track frame offsets:
#	150
#	13212
#	26216
#	38459
#	51797
#	63515
#	76154
#	87875
#	100053
#	110586
#	122122
#	134584
#	146504
#	159356
#	169135
#	179501
#	189784
#	200753
#	214076
#	224888
#	235549
#	246282
#	256192
#	272110
#
# Disc length: 3767 seconds
#
# Revision: 1
# Processed by: cddbd v1.5.2PL0 Copyright (c) Steve Scherf et al.
# Submitted via: audiograbber 1.83.01
#
DISCID=5c0eb518
DTITLE=The Greatest Country Music Recordings Of All Time - Record 83 and 84
DYEAR=1900
DGENRE=
TTITLE0=Spade Cooley and His Orchestra - Shame On You
TTITLE1=Spade Cooley and His Orchestra - Oklahoma Stomp
TTITLE2=Spade Cooley and His Orchestra - Detour
TTITLE3=Tex Williams and His Western Caravan - Smoke, Smoke, Smoke
TTITLE4=Cliffie Stone and His Barn Dance Band - Spanish Bells
TTITLE5=Leon McAuliffe and His Western Swing Band - Panhandle Rag
TTITLE6=Johnny Lee Wills and His Boys - Boogie Woogie Highball
TTITLE7=Luke Wills Rhythm Busters - Four Of Five Times
TTITLE8=Luke Wills Rhythm Busters - The Fly In My Ointment
TTITLE9=Hank Penny - Talkin' 'Bout You
TTITLE10=Merl Lindsey and His Oklahoma Night Raiders - Water Baby Blues
TTITLE11=Cecil Campbell's Tennessee Ramblers - Beaty Steel Blues
TTITLE12=Curley Williams and His Georgia Peach Pickers - Georgia Steel Guitar
TTITLE13=Hank Thompson and The Brazos Valley Boys - New Green Light
TTITLE14=Hank Thompson and The Brazos Valley Boys - Westphalia Waltz
TTITLE15=Hank Thompson and The Brazos Valley Boys - Rub-A-Dub-Dub
TTITLE16=Tommy Duncan and His Western All Stars - Take Me Back To Tulsa
TTITLE17=Tommy Duncan and His Western All Stars - Time Changes Everything
TTITLE18=Hoyle Nix and His West Texas Cowboys - Coming Down From Denver
TTITLE19=Dave Stogner and His Band - Oh Sweet Mama
TTITLE20=Shorty Joe and His Red Rock Canyon Cowboys - Saturday Night Stomp
TTITLE21=Bobby Garret - Rose City Chimes
TTITLE22=Alvin Crow and The Pleasant Valley Boys - Yes She Do, Oh No She Don't
TTITLE23=Windy Wood - Charmaine
EXTD=
EXTT0=
EXTT1=
EXTT2=
EXTT3=
EXTT4=
EXTT5=
EXTT6=
EXTT7=
EXTT8=
EXTT9=
EXTT10=
EXTT11=
EXTT12=
EXTT13=
EXTT14=
EXTT15=
EXTT16=
EXTT17=
EXTT18=
EXTT19=
EXTT20=
EXTT21=
EXTT22=
EXTT23=
PLAYORDER=
